<?xml version="1.0" encoding="utf-8"?>
<!-- Generator: Adobe Illustrator 14.0.0, SVG Export Plug-In . SVG Version: 6.00 Build 43363)  -->
<!DOCTYPE svg PUBLIC "-//W3C//DTD SVG 1.1//EN" "http://www.w3.org/Graphics/SVG/1.1/DTD/svg11.dtd">
<svg version="1.1" id="Layer_1" xmlns="http://www.w3.org/2000/svg" xmlns:xlink="http://www.w3.org/1999/xlink" x="0px" y="0px"
	 width="200px" height="200px" viewBox="0 0 200 200" enable-background="new 0 0 200 200" xml:space="preserve">
<g>
	<rect x="40.52" y="95.469" fill="#0096A9" width="1.613" height="9.062"/>
	<polygon fill="#0096A9" points="48.338,95.468 50.477,95.468 54.869,102.201 54.892,102.225 54.869,102.225 54.892,102.201 
		54.892,95.468 56.504,95.468 56.504,104.531 54.456,104.531 49.98,97.578 49.952,97.578 49.952,104.531 48.338,104.531 	"/>
	<polygon fill="#0096A9" points="61.7,95.468 63.559,95.468 66.031,102.317 68.581,95.468 70.314,95.468 66.657,104.531 
		65.261,104.531 	"/>
	<polygon fill="#0096A9" points="75.512,95.468 81.517,95.468 81.517,96.93 77.128,96.93 77.128,99.157 81.287,99.157 
		81.287,100.617 77.128,100.617 77.128,103.076 81.743,103.076 81.743,104.531 75.512,104.531 	"/>
	<path fill="#0096A9" d="M92.002,97.414c-0.349-0.485-0.965-0.717-1.587-0.717c-0.743,0-1.49,0.332-1.49,1.164
		c0,1.818,4.307,0.782,4.307,4.008c0,1.947-1.535,2.895-3.319,2.895c-1.127,0-2.224-0.347-2.971-1.23l1.218-1.179
		c0.397,0.607,1.077,0.948,1.792,0.948c0.744,0,1.591-0.409,1.591-1.244c0-1.983-4.307-0.843-4.307-4.084
		c0-1.873,1.664-2.737,3.343-2.737c0.947,0,1.894,0.268,2.599,0.932L92.002,97.414z"/>
	<polygon fill="#0096A9" points="100.987,96.929 98.208,96.929 98.208,95.468 105.377,95.468 105.377,96.929 102.599,96.929 
		102.599,104.53 100.987,104.53 	"/>
	<polygon fill="#0096A9" points="110.738,95.468 113.196,95.468 115.616,101.819 118.063,95.468 120.495,95.468 120.495,104.531 
		118.957,104.531 118.957,97.003 118.933,97.003 116.184,104.531 115.054,104.531 112.301,97.003 112.274,97.003 112.274,104.531 
		110.738,104.531 	"/>
	<polygon fill="#0096A9" points="126.778,95.468 132.783,95.468 132.783,96.93 128.389,96.93 128.389,99.157 132.556,99.157 
		132.556,100.617 128.389,100.617 128.389,103.076 133.014,103.076 133.014,104.531 126.778,104.531 	"/>
	<polygon fill="#0096A9" points="138.82,95.468 140.958,95.468 145.35,102.201 145.377,102.225 145.35,102.225 145.377,102.201 
		145.377,95.468 146.987,95.468 146.987,104.531 144.942,104.531 140.46,97.578 140.434,97.578 140.434,104.531 138.82,104.531 	"/>
	<polygon fill="#0096A9" points="155.092,96.929 152.313,96.929 152.313,95.468 159.479,95.468 159.479,96.929 156.705,96.929 
		156.705,104.53 155.092,104.53 	"/>
	<path fill="#404040" d="M58.693,132.18c2.225-1.37,3.457-3.56,3.457-6.272c0-6.104-5.326-8.267-9.884-8.267H39.935v31.137h11.462
		c7.625,0,12.002-3.376,12.002-9.261C63.398,136.165,61.553,133.409,58.693,132.18 M46.929,135.831h4.134
		c4.468,0,5.335,1.201,5.335,3.271c0,2.373-1.708,3.435-5.542,3.435h-3.928V135.831z M50.811,129.589h-3.882v-5.702h3.429
		c4.233,0,4.803,1.462,4.803,2.894C55.161,129.225,52.438,129.589,50.811,129.589"/>
	<path fill="#404040" d="M77.508,117.641l-13.546,31.138h7.793l2.657-6.72h11.541l2.741,6.72h7.904l-13.411-31.138H77.508z
		 M83.444,135.813h-6.563l3.313-8.594L83.444,135.813z"/>
	<polygon fill="#404040" points="120.663,137.503 107.711,117.641 99.423,117.641 99.423,148.778 106.42,148.778 106.42,128.238 
		119.654,148.778 127.658,148.778 127.658,117.641 120.663,117.641 	"/>
	<polygon fill="#404040" points="144.632,132.114 159.282,117.641 149.712,117.641 138.561,129.057 138.561,117.641 
		131.564,117.641 131.564,148.778 138.561,148.778 138.561,135.466 150.304,148.778 160.07,148.778 	"/>
	<path fill="#404040" d="M79.761,71.271c0,0.974-0.275,5.834-5.716,5.834c-5.435,0-5.709-4.86-5.709-5.834V51.966h-6.997v19.468
		c0,7.313,5.224,12.417,12.706,12.417c7.489,0,12.71-5.104,12.71-12.417V51.966h-6.995V71.271z"/>
	<path fill="#404040" d="M112.188,74.127c-1.679,2.142-3.665,3.231-5.903,3.231c-5.417,0-9.2-4.125-9.2-10.03
		c0-5.571,3.864-9.616,9.2-9.616c2.141,0,3.798,0.787,5.541,2.627l0.532,0.57l5.467-4.015l-0.628-0.721
		c-2.875-3.331-6.459-4.952-10.952-4.952c-9.658,0-16.405,6.758-16.405,16.439c0,9.535,6.747,16.192,16.405,16.192
		c4.969,0,9.008-1.934,11.668-5.592l0.521-0.72l-5.727-4.076L112.188,74.127z"/>
	<rect x="120.6" y="51.965" fill="#404040" width="6.992" height="31.141"/>
	<path fill="#404040" d="M143.834,51.966h-12.459v31.139h11.836c7.971,0,16.442-5.457,16.442-15.568
		C159.653,56.781,151.71,51.966,143.834,51.966 M138.366,58.459h3.889c4.63,0,10.154,1.578,10.154,9.078
		c0,7.896-6.904,9.076-11.023,9.076h-3.02V58.459z"/>
	<path fill="#404040" d="M58.595,76.608H46.931V51.962h-6.992v31.145h22.373C60.655,81.604,59.217,79.582,58.595,76.608"/>
	<polygon fill="#404040" points="0,0 0,200 39.933,200 39.933,189.436 10.564,189.436 10.564,10.564 189.437,10.564 
		189.437,189.436 160.07,189.436 160.07,200 200,200 200,0 	"/>
	<rect x="39.935" y="189.437" fill="#0096A9" width="120.136" height="10.563"/>
</g>
</svg>
